<svg xmlns="http://www.w3.org/2000/svg" viewBox="0 0 1000 1000">
  <g transform="matrix(1 0 0 -1 0 850)">
   <path fill="currentColor"
d="M34 284q-42 10 -32 56q10 42 54 32l98 -24l-52 -80zM924 272q14 12 33 11t31 -15q32 -32 -2 -64l-252 -226q-12 -12 -30 -12q-14 0 -28 10l-286 220l-54 14l50 80l36 -8q12 -4 16 -8l264 -204zM434 492l-350 -550q-12 -22 -38 -22q-12 0 -24 8q-16 10 -20 29t6 33
l374 588q8 16 28 20q18 6 36 -6l246 -156l226 326q10 16 28 19t34 -9q38 -24 12 -62l-252 -362q-24 -36 -62 -12z" />
  </g>
</svg>
