<svg xmlns="http://www.w3.org/2000/svg" viewBox="0 0 1000 1000">
  <g transform="matrix(1 0 0 -1 0 850)">
   <path fill="currentColor"
d="M0 299v103q0 6 4 11t9 6l86 13q6 20 18 42q-19 27 -50 64q-4 6 -4 11q0 7 4 11q12 17 46 50t44 33q6 0 12 -4l64 -50q19 10 43 18q6 60 13 86q4 13 17 13h104q6 0 11 -4t6 -10l13 -85q19 -6 42 -17l66 50q4 4 11 4q6 0 12 -4q80 -74 80 -89q0 -5 -4 -11q-7 -9 -23 -30
t-25 -33q13 -27 19 -46l85 -13q6 -1 9 -6t4 -11v-103q0 -6 -4 -11t-9 -6l-86 -13q-6 -20 -18 -42q19 -27 50 -64q4 -6 4 -11q0 -7 -4 -11q-13 -17 -46 -50t-44 -33q-6 0 -12 4l-64 50q-21 -11 -43 -17q-6 -60 -13 -86q-4 -13 -17 -13h-104q-6 0 -11 4t-6 10l-13 85
q-19 6 -42 17l-66 -50q-4 -4 -11 -4q-6 0 -12 4q-80 74 -80 89q0 5 4 11q6 8 23 30t26 34q-13 25 -20 46l-85 13q-6 1 -9 5t-4 11v-1zM214 350q0 -59 42 -101t101 -42t101 42t42 101t-42 101t-101 42t-101 -42t-42 -101zM643 25v78q0 9 83 17q7 16 17 29q-28 63 -28 77
q0 2 2 4q2 1 20 11t33 19t17 9q4 0 26 -26t29 -38q11 1 17 1t17 -1q28 40 51 62l3 1q2 0 69 -39q2 -2 2 -4q0 -14 -28 -77q9 -13 17 -29q83 -8 83 -17v-78q0 -9 -83 -17q-7 -15 -17 -29q28 -63 28 -77q0 -2 -2 -4q-68 -40 -69 -40q-4 0 -26 26t-29 38q-11 -1 -17 -1t-17 1
q-8 -12 -29 -38t-26 -26q-1 0 -69 40q-2 2 -2 4q0 14 28 77q-10 14 -17 29q-83 8 -83 17v1zM643 596v78q0 9 83 17q7 16 17 29q-28 63 -28 77q0 2 2 4q2 1 20 11t33 19t17 9q4 0 26 -26t29 -38q11 1 17 1t17 -1q28 40 51 62l3 1q2 0 69 -39q2 -2 2 -4q0 -14 -28 -77
q9 -13 17 -29q83 -8 83 -17v-78q0 -9 -83 -17q-7 -15 -17 -29q28 -63 28 -77q0 -2 -2 -4q-68 -40 -69 -40q-4 0 -26 26t-29 38q-11 -1 -17 -1t-17 1q-8 -12 -29 -38t-26 -26q-1 0 -69 40q-2 2 -2 4q0 14 28 77q-10 14 -17 29q-83 8 -83 17v1zM786 64q0 -30 21 -50t50 -21
t50 21t21 50q0 29 -21 50t-50 21t-50 -21t-21 -50zM786 635q0 -30 21 -50t50 -21t50 21t21 50q0 29 -21 50t-50 21t-50 -21t-21 -50z" />
  </g>
</svg>
