<svg xmlns="http://www.w3.org/2000/svg" viewBox="0 0 1000 1000">
  <g transform="matrix(1 0 0 -1 0 850)">
   <path fill="currentColor"
d="M0 -7v250q0 15 11 25t25 11h250q15 0 25 -11t11 -25t-11 -25l-76 -76q40 -37 90 -57t104 -20q75 0 140 36t104 100q6 9 30 65q4 13 17 13h107q7 0 13 -5t5 -13q0 -3 -1 -4q-36 -150 -150 -242t-267 -93q-81 0 -158 31t-136 88l-72 -72q-11 -11 -25 -11t-25 11t-11 25v-1z
M10 439v4q36 150 151 242t268 93q81 0 158 -31t137 -87l73 72q11 11 25 11t25 -11t11 -25v-250q0 -15 -11 -25t-25 -11h-250q-15 0 -25 11t-11 25t11 25l77 77q-83 76 -195 76q-75 0 -140 -36t-104 -100q-6 -9 -30 -65q-4 -13 -17 -13h-111q-7 0 -13 5t-5 13h1z" />
  </g>
</svg>
