<svg xmlns="http://www.w3.org/2000/svg" viewBox="0 0 1000 1000">
  <g transform="matrix(1 0 0 -1 0 850)">
   <path fill="currentColor"
d="M0 289v124q0 7 4 13t11 7l104 16q8 26 22 51q-22 32 -60 77q-6 7 -6 13t5 13q15 20 55 60t53 40q7 0 15 -6l77 -60q25 13 51 21q9 76 16 104q4 16 20 16h124q8 0 14 -5t6 -12l16 -103q27 -9 50 -21l79 60q5 5 13 5q7 0 14 -6q72 -66 92 -95q4 -4 4 -12q0 -7 -4 -13
q-8 -12 -28 -37t-30 -39q15 -28 23 -55l102 -16q7 -1 12 -7t4 -13v-124q0 -7 -4 -13t-11 -7l-103 -16q-11 -30 -22 -51q20 -28 60 -77q6 -7 6 -14t-5 -13q-15 -21 -55 -60t-52 -40q-7 0 -15 5l-77 60q-25 -13 -51 -21q-9 -76 -16 -104q-4 -16 -20 -16h-124q-8 0 -14 5t-6 12
l-16 103q-27 9 -50 21l-79 -60q-6 -5 -14 -5t-14 6q-70 64 -92 94q-4 6 -4 13t4 13q8 12 28 37t30 39q-15 28 -23 55l-102 15q-7 1 -12 7t-4 13zM286 350q0 -59 42 -101t101 -42t101 42t42 101t-42 101t-101 42t-101 -42t-42 -101z" />
  </g>
</svg>
